<?xml version="1.0" encoding="UTF-8" standalone="no"?>
<!-- Generator: Adobe Illustrator 15.1.0, SVG Export Plug-In . SVG Version: 6.00 Build 0)  -->
<!DOCTYPE svg PUBLIC "-//W3C//DTD SVG 1.1//EN" "http://www.w3.org/Graphics/SVG/1.1/DTD/svg11.dtd">
<svg id="Layer_1" xmlns="http://www.w3.org/2000/svg" xml:space="preserve" height="2880px" viewBox="0 0 2880 2880" width="2880px" version="1.1" y="0px" x="0px" xmlns:xlink="http://www.w3.org/1999/xlink" enable-background="new 0 0 2880 2880">
	<ellipse cy="1440" cx="1440.4" rx="1439.6" ry="1440" fill="#9adec5"/>
		<radialGradient id="SVGID_1_" gradientUnits="userSpaceOnUse" cy="1440" cx="1440.6" gradientTransform="matrix(.9997 0 0 1 -.1987 0)" r="1440">
		<stop stop-color="#ccf3e7" offset="0"/>
		<stop stop-color="#9adec5" offset="1"/>
	</radialGradient>
	<path d="m260.74 2265.9l-0.078 0.055c24.088 34.34 49.636 67.562 76.551 99.613l1102.6-925.47-1179.1 825.8z" fill="url(#SVGID_1_)"/>
		<radialGradient id="SVGID_2_" gradientUnits="userSpaceOnUse" cy="1440" cx="1440.6" gradientTransform="matrix(.9997 0 0 1 -.1987 0)" r="1440">
		<stop stop-color="#ccf3e7" offset="0"/>
		<stop stop-color="#9adec5" offset="1"/>
	</radialGradient>
	<path d="m1440 1440l-608.35 1305-0.109 0.258c37.807 17.664 76.477 33.801 115.99 48.188l0.145-0.344 492.32-1353.2z" fill="url(#SVGID_2_)"/>
		<radialGradient id="SVGID_3_" gradientUnits="userSpaceOnUse" cy="1440" cx="1440.6" gradientTransform="matrix(.9997 0 0 1 -.1987 0)" r="1440">
		<stop stop-color="#ccf3e7" offset="0"/>
		<stop stop-color="#9adec5" offset="1"/>
	</radialGradient>
	<path d="m422.05 2458.2l-0.031 0.035c29.606 29.613 60.563 57.867 92.641 84.828l925.19-1102.9-1017.8 1018.1z" fill="url(#SVGID_3_)"/>
		<radialGradient id="SVGID_4_" gradientUnits="userSpaceOnUse" cy="1440" cx="1440.6" gradientTransform="matrix(.9997 0 0 1 -.1987 0)" r="1440">
		<stop stop-color="#ccf3e7" offset="0"/>
		<stop stop-color="#9adec5" offset="1"/>
	</radialGradient>
	<path d="m1440 1439.9l372.6-1390.8 0.074-0.227c-40.224-10.754-81.124-19.855-122.66-27.129l-0.039 0.156-250 1418z" fill="url(#SVGID_4_)"/>
		<radialGradient id="SVGID_5_" gradientUnits="userSpaceOnUse" cy="1440" cx="1440.6" gradientTransform="matrix(.9997 0 0 1 -.1987 0)" r="1440">
		<stop stop-color="#ccf3e7" offset="0"/>
		<stop stop-color="#9adec5" offset="1"/>
	</radialGradient>
	<path d="m1565.5 5.504c-41.4-3.574-83.2-5.504-125.5-5.504v1439.9l125.5-1434.4z" fill="url(#SVGID_5_)"/>
		<radialGradient id="SVGID_6_" gradientUnits="userSpaceOnUse" cy="1440" cx="1440.6" gradientTransform="matrix(.9997 0 0 1 -.1987 0)" r="1426.6">
		<stop stop-color="#ccf3e7" offset="0"/>
		<stop stop-color="#9adec5" offset="1"/>
	</radialGradient>
	<polyline points="2793.2 1932.6 2792.9 1932.5 1440.1 1440 2744.8 2048.6 2745 2048.7" fill="url(#SVGID_6_)"/>
		<radialGradient id="SVGID_7_" gradientUnits="userSpaceOnUse" cy="1440" cx="1440.6" gradientTransform="matrix(.9997 0 0 1 -.1987 0)" r="1440">
		<stop stop-color="#ccf3e7" offset="0"/>
		<stop stop-color="#9adec5" offset="1"/>
	</radialGradient>
	<path d="m1314.5 2874.5c41.357 3.57 83.183 5.504 125.47 5.504v-1440l-125.5 1434.5z" fill="url(#SVGID_7_)"/>
		<radialGradient id="SVGID_8_" gradientUnits="userSpaceOnUse" cy="1300.8" cx="731.33" gradientTransform="matrix(.7658 -.6428 .6426 .766 44.003 913.69)" r="1440.6">
		<stop stop-color="#ccf3e7" offset="0"/>
		<stop stop-color="#9adec5" offset="1"/>
	</radialGradient>
	<path d="m614.26 260.44c-33.976 23.855-67.252 49.27-99.646 76.453l925.32 1103-825.64-1179.5z" fill="url(#SVGID_8_)"/>
		<radialGradient id="SVGID_9_" gradientUnits="userSpaceOnUse" cy="1300.8" cx="731.33" gradientTransform="matrix(.7658 -.6428 .6426 .766 44.003 913.69)" r="1440">
		<stop stop-color="#ccf3e7" offset="0"/>
		<stop stop-color="#9adec5" offset="1"/>
	</radialGradient>
	<path d="m2265.7 2619.6c33.972-23.859 67.252-49.27 99.646-76.457l-925.3-1103.1 825.7 1179.6z" fill="url(#SVGID_9_)"/>
		<radialGradient id="SVGID_10_" gradientUnits="userSpaceOnUse" cy="1440" cx="1440.6" gradientTransform="matrix(.9997 0 0 1 -.1987 0)" r="1440">
		<stop stop-color="#ccf3e7" offset="0"/>
		<stop stop-color="#9adec5" offset="1"/>
	</radialGradient>
	<polyline points="1932.5 86.5 1932.4 86.801 1440 1439.9 2048.4 134.9 2048.5 134.7" fill="url(#SVGID_10_)"/>
		<radialGradient id="SVGID_11_" gradientUnits="userSpaceOnUse" cy="1440" cx="1440.6" gradientTransform="matrix(.9997 0 0 1 -.1987 0)" r="1440">
		<stop stop-color="#ccf3e7" offset="0"/>
		<stop stop-color="#9adec5" offset="1"/>
	</radialGradient>
	<path d="m1440.1 1440l1179.2 825.91 0.02 0.008c24.01-34.234 46.598-69.535 67.608-105.86l-0.145-0.098-1246.7-719.9z" fill="url(#SVGID_11_)"/>
		<radialGradient id="SVGID_12_" gradientUnits="userSpaceOnUse" cy="1440" cx="1440.6" gradientTransform="matrix(.9997 0 0 1 -.1987 0)" r="1440">
		<stop stop-color="#ccf3e7" offset="0"/>
		<stop stop-color="#9adec5" offset="1"/>
	</radialGradient>
	<path d="m337.22 514.43l1102.6 925.47-1304.5-608.45-0.253-0.109c-17.66 37.82-33.796 76.492-48.176 116.01l0.34 0.148 1352.8 492.45-1390.5-372.7-0.273-0.078c-10.755 40.234-19.854 81.141-27.13 122.69l0.207 0.043 1417.6 250.1-1434 125.5c3.632 42.07 9.017 83.633 16.188 124.59l0.207-0.039 1417.6-250-1304.6 608.5-0.253 0.105c17.773 38.066 37.108 75.254 58.028 111.42l0.207-0.121 1246.6-719.86v0.051l-825.64 1179.4-0.051 0.043c34.238 24.023 69.541 46.625 105.87 67.656l0.102-0.199 719.77-1247-372.56 1390.9-0.078 0.273c40.225 10.758 81.124 19.859 122.66 27.133l0.039-0.203 250-1418.2 0.047 0.098 0.098 0.152 825.6 1179.4 0.012 0.016c34.335-24.09 67.561-49.652 99.607-76.578l-925.22-1102.9-0.051-0.102 1390.5 372.65 0.226 0.074c10.748-40.234 19.848-81.141 27.123-122.69l-0.156-0.039-1417.6-250.2 0.047-0.047 0.051-0.102-0.098 0.102h-0.047v-0.051l-125.5-1434.4c-42.06 3.633-83.611 9.02-124.56 16.191l0.039 0.203 249.94 1418-372.4-1390.8-0.078-0.227c-40.674 10.875-80.664 23.418-119.83 37.684l0.145 0.344 492.28 1352.9-608.3-1304.9-0.105-0.203c-38.064 17.781-75.254 37.125-111.42 58.055l0.102 0.148 719.67 1246.9-1017.8-1018" fill="url(#SVGID_12_)"/>
		<radialGradient id="SVGID_13_" gradientUnits="userSpaceOnUse" cy="1440" cx="1440.6" gradientTransform="matrix(.9997 0 0 1 -.1987 0)" r="1440">
		<stop stop-color="#ccf3e7" offset="0"/>
		<stop stop-color="#9adec5" offset="1"/>
	</radialGradient>
	<path d="m1440 1440l125.46 1434.5c42.06-3.633 83.611-9.02 124.56-16.191l-0.039-0.203-250.1-1418.1z" fill="url(#SVGID_13_)"/>
		<radialGradient id="SVGID_14_" gradientUnits="userSpaceOnUse" cy="1440" cx="1440.6" gradientTransform="matrix(.9997 0 0 1 -.1987 0)" r="1440">
		<stop stop-color="#ccf3e7" offset="0"/>
		<stop stop-color="#9adec5" offset="1"/>
	</radialGradient>
	<path d="m1440 1440.1l372.56 1390.9 0.074 0.223c40.678-10.879 80.672-23.418 119.84-37.684l-0.145-0.344-492.4-1353.1z" fill="url(#SVGID_14_)"/>
		<radialGradient id="SVGID_15_" gradientUnits="userSpaceOnUse" cy="1440" cx="1440.6" gradientTransform="matrix(.9997 0 0 1 -.1987 0)" r="1440">
		<stop stop-color="#ccf3e7" offset="0"/>
		<stop stop-color="#9adec5" offset="1"/>
	</radialGradient>
	<path d="m2458 2458.2c29.606-29.617 57.857-60.578 84.807-92.668l-1102.6-925.42 1017.8 1018.1z" fill="url(#SVGID_15_)"/>
		<radialGradient id="SVGID_16_" gradientUnits="userSpaceOnUse" cy="1440" cx="1440.6" gradientTransform="matrix(.9997 0 0 1 -.1987 0)" r="1440">
		<stop stop-color="#ccf3e7" offset="0"/>
		<stop stop-color="#9adec5" offset="1"/>
	</radialGradient>
	<path d="m1440.1 1440.2l608.3 1304.8 0.09 0.191c38.053-17.781 75.227-37.121 111.38-58.039l-0.094-0.148-719.7-1246.9z" fill="url(#SVGID_16_)"/>
		<radialGradient id="SVGID_17_" gradientUnits="userSpaceOnUse" cy="1440" cx="1440.6" gradientTransform="matrix(.9997 0 0 1 -.1987 0)" r="1440">
		<stop stop-color="#ccf3e7" offset="0"/>
		<stop stop-color="#9adec5" offset="1"/>
	</radialGradient>
	<path d="m1439.6 1440.1l-1390.1 372.6-0.273 0.078c10.868 40.684 23.404 80.691 37.67 119.87l0.34-0.148 1352.4-492.5z" fill="url(#SVGID_17_)"/>
		<radialGradient id="SVGID_18_" gradientUnits="userSpaceOnUse" cy="1440" cx="1440.6" gradientTransform="matrix(.9997 0 0 1 -.1987 0)" r="1440">
		<stop stop-color="#ccf3e7" offset="0"/>
		<stop stop-color="#9adec5" offset="1"/>
	</radialGradient>
	<path d="m1440.1 1440l1390.5-372.65 0.226-0.078c-10.875-40.684-23.412-80.688-37.678-119.87l-0.34 0.102-1352.7 492.47z" fill="url(#SVGID_18_)"/>
		<radialGradient id="SVGID_19_" gradientUnits="userSpaceOnUse" cy="1321.6" cx="1787.6" gradientTransform="matrix(.9395 .342 -.3419 .9397 212.47 -413.32)" r="1439.9">
		<stop stop-color="#ccf3e7" offset="0"/>
		<stop stop-color="#9adec5" offset="1"/>
	</radialGradient>
	<path d="m1439.6 1440l-1433.7-125.5-0.285-0.02c-3.694 41.949-5.592 83.828-5.588 125.53l0.371-0.02h1439.2z" fill="url(#SVGID_19_)"/>
		<radialGradient id="SVGID_20_" gradientUnits="userSpaceOnUse" cy="1321.6" cx="1787.6" gradientTransform="matrix(.9395 .342 -.3419 .9397 212.47 -413.32)" r="1440">
		<stop stop-color="#ccf3e7" offset="0"/>
		<stop stop-color="#9adec5" offset="1"/>
	</radialGradient>
	<path d="m1440.1 1440l1434.1 125.52 0.234 0.004c3.689-41.953 5.592-83.828 5.584-125.53l-0.352-0.023h-1439.5z" fill="url(#SVGID_20_)"/>
		<radialGradient id="SVGID_21_" gradientUnits="userSpaceOnUse" cy="943.14" cx="2182.2" gradientTransform="matrix(.6426 .766 -.7658 .6428 759.92 -837.79)" r="1439.9">
		<stop stop-color="#ccf3e7" offset="0"/>
		<stop stop-color="#9adec5" offset="1"/>
	</radialGradient>
	<path d="m1439.7 1439.8l-1179-825.73-0.238-0.156c-24.166 34.484-46.746 69.801-67.584 105.91l0.332 0.172 1246.5 719.81z" fill="url(#SVGID_21_)"/>
		<radialGradient id="SVGID_22_" gradientUnits="userSpaceOnUse" cy="1440" cx="1440.6" gradientTransform="matrix(.9997 0 0 1 -.1987 0)" r="1440">
		<stop stop-color="#ccf3e7" offset="0"/>
		<stop stop-color="#9adec5" offset="1"/>
	</radialGradient>
	<path d="m1440.1 1440l1304.7-608.56 0.191-0.094c-17.773-38.059-37.108-75.242-58.028-111.4l-0.145 0.098-1246.8 719.95z" fill="url(#SVGID_22_)"/>
		<radialGradient id="SVGID_23_" gradientUnits="userSpaceOnUse" cy="1440" cx="1440.6" gradientTransform="matrix(.9997 0 0 1 -.1987 0)" r="1440">
		<stop stop-color="#ccf3e7" offset="0"/>
		<stop stop-color="#9adec5" offset="1"/>
	</radialGradient>
	<path d="m2458 421.77c-29.613-29.621-60.57-57.887-92.668-84.848l-925.16 1102.9 1017.9-1018z" fill="url(#SVGID_23_)"/>
		<radialGradient id="SVGID_24_" gradientUnits="userSpaceOnUse" cy="1440" cx="1440.6" gradientTransform="matrix(.9997 0 0 1 -.1987 0)" r="1440">
		<stop stop-color="#ccf3e7" offset="0"/>
		<stop stop-color="#9adec5" offset="1"/>
	</radialGradient>
	<path d="m2619.3 614.05l0.02-0.012c-24.088-34.348-49.64-67.578-76.563-99.633l-1102.6 925.44 1179.2-825.75z" fill="url(#SVGID_24_)"/>
		<radialGradient id="SVGID_25_" gradientUnits="userSpaceOnUse" cy="1440" cx="1440.6" gradientTransform="matrix(.9997 0 0 1 -.1987 0)" r="1440">
		<stop stop-color="#ccf3e7" offset="0"/>
		<stop stop-color="#9adec5" offset="1"/>
	</radialGradient>
	<path d="m1440 1440l825.7-1179.6 0.012-0.016c-34.227-24.02-69.521-46.609-105.84-67.633l-0.094 0.148-719.8 1247.1z" fill="url(#SVGID_25_)"/>
		<radialGradient id="SVGID_26_" gradientUnits="userSpaceOnUse" cy="1440" cx="1440.6" gradientTransform="matrix(.9997 0 0 1 -.1987 0)" r="1440">
		<stop stop-color="#ccf3e7" offset="0"/>
		<stop stop-color="#9adec5" offset="1"/>
	</radialGradient>
	<path d="m1440 1440l1434.1-125.5c-3.633-42.07-9.018-83.637-16.188-124.59l-0.156 0.039-1417.7 250.1z" fill="url(#SVGID_26_)"/>
</svg>